<mxfile host="app.diagrams.net" modified="2021-01-08T07:53:41.438Z" agent="5.0 (Windows)" etag="thgyi8WoFGLyOzF4nyyQ" version="14.1.8" type="github">
  <diagram id="oEZEVSzH138FiBMtcp_p" name="Page-1">
    <mxGraphModel dx="1135" dy="610" grid="1" gridSize="10" guides="1" tooltips="1" connect="1" arrows="1" fold="1" page="1" pageScale="1" pageWidth="850" pageHeight="1100" background="#9AC7BF" math="0" shadow="1">
      <root>
        <mxCell id="0" />
        <mxCell id="1" parent="0" />
        <mxCell id="caf9pRx0J8VwcJRrtuNd-8" value="User&#39;s account" style="shape=hexagon;perimeter=hexagonPerimeter2;whiteSpace=wrap;html=1;fixedSize=1;fillColor=#f5f5f5;strokeColor=#666666;fontColor=#333333;" parent="1" vertex="1">
          <mxGeometry x="310" y="700" width="200" height="40" as="geometry" />
        </mxCell>
        <mxCell id="caf9pRx0J8VwcJRrtuNd-49" style="edgeStyle=orthogonalEdgeStyle;orthogonalLoop=1;jettySize=auto;html=1;exitX=0;exitY=0.5;exitDx=0;exitDy=0;exitPerimeter=0;dashed=1;fontSize=14;rounded=1;" parent="1" source="caf9pRx0J8VwcJRrtuNd-9" target="caf9pRx0J8VwcJRrtuNd-8" edge="1">
          <mxGeometry relative="1" as="geometry">
            <Array as="points">
              <mxPoint x="470" y="490" />
            </Array>
          </mxGeometry>
        </mxCell>
        <mxCell id="caf9pRx0J8VwcJRrtuNd-51" value="LP Tokens" style="edgeLabel;html=1;align=center;verticalAlign=middle;resizable=0;points=[];fontSize=12;fontStyle=2;noLabel=1;fontColor=none;labelBackgroundColor=none;" parent="caf9pRx0J8VwcJRrtuNd-49" vertex="1" connectable="0">
          <mxGeometry x="0.0472" y="-2" relative="1" as="geometry">
            <mxPoint x="2" y="19.17" as="offset" />
          </mxGeometry>
        </mxCell>
        <mxCell id="caf9pRx0J8VwcJRrtuNd-9" value="&lt;div&gt;&lt;i&gt;HackerBot&lt;/i&gt;&lt;br&gt;&lt;/div&gt;" style="shape=cylinder3;whiteSpace=wrap;html=1;boundedLbl=1;backgroundOutline=1;size=15;fillColor=#dae8fc;strokeColor=#6c8ebf;" parent="1" vertex="1">
          <mxGeometry x="510" y="440" width="90" height="100" as="geometry" />
        </mxCell>
        <mxCell id="caf9pRx0J8VwcJRrtuNd-10" value="" style="endArrow=classic;html=1;entryX=0.5;entryY=1;entryDx=0;entryDy=0;entryPerimeter=0;exitX=1;exitY=0.5;exitDx=0;exitDy=0;" parent="1" source="caf9pRx0J8VwcJRrtuNd-8" target="caf9pRx0J8VwcJRrtuNd-9" edge="1">
          <mxGeometry relative="1" as="geometry">
            <mxPoint x="470" y="700" as="sourcePoint" />
            <mxPoint x="540" y="660" as="targetPoint" />
            <Array as="points">
              <mxPoint x="555" y="720" />
            </Array>
          </mxGeometry>
        </mxCell>
        <mxCell id="caf9pRx0J8VwcJRrtuNd-11" value="Encrypt Credits" style="edgeLabel;resizable=0;html=1;align=center;verticalAlign=middle;fontStyle=2;labelBackgroundColor=#9AC7BF;" parent="caf9pRx0J8VwcJRrtuNd-10" connectable="0" vertex="1">
          <mxGeometry relative="1" as="geometry">
            <mxPoint y="7.5" as="offset" />
          </mxGeometry>
        </mxCell>
        <mxCell id="caf9pRx0J8VwcJRrtuNd-16" value="" style="endArrow=classic;html=1;dashed=1;entryX=0.5;entryY=1;entryDx=0;entryDy=0;entryPerimeter=0;" parent="1" target="caf9pRx0J8VwcJRrtuNd-38" edge="1">
          <mxGeometry relative="1" as="geometry">
            <mxPoint x="410" y="770" as="sourcePoint" />
            <mxPoint x="125" y="680" as="targetPoint" />
            <Array as="points">
              <mxPoint x="85" y="770" />
            </Array>
          </mxGeometry>
        </mxCell>
        <mxCell id="caf9pRx0J8VwcJRrtuNd-17" value="Fees" style="edgeLabel;resizable=0;html=1;align=center;verticalAlign=middle;fontStyle=2;fontSize=13;labelBackgroundColor=#9AC7BF;" parent="caf9pRx0J8VwcJRrtuNd-16" connectable="0" vertex="1">
          <mxGeometry relative="1" as="geometry">
            <mxPoint x="37.5" as="offset" />
          </mxGeometry>
        </mxCell>
        <mxCell id="caf9pRx0J8VwcJRrtuNd-23" value="&lt;p style=&quot;line-height: 100%&quot;&gt;&lt;font style=&quot;font-size: 10px&quot;&gt;Every 30 days, participants receive a % of the total supply as rewards, until the reward is converted to the transaction &amp;amp; entrance fees from Swapbot, etc.&lt;br&gt;&lt;/font&gt;&lt;/p&gt;" style="rounded=1;whiteSpace=wrap;html=1;gradientColor=none;fillColor=#EEEEEE;shadow=0;verticalAlign=top;strokeColor=#36393d;glass=0;spacing=5;spacingTop=-20;sketch=0;" parent="1" vertex="1">
          <mxGeometry x="640" y="474" width="200" height="56" as="geometry" />
        </mxCell>
        <mxCell id="caf9pRx0J8VwcJRrtuNd-24" value="" style="shape=link;html=1;dashed=1;" parent="1" edge="1">
          <mxGeometry width="100" relative="1" as="geometry">
            <mxPoint x="600" y="498.5" as="sourcePoint" />
            <mxPoint x="640" y="499" as="targetPoint" />
          </mxGeometry>
        </mxCell>
        <mxCell id="caf9pRx0J8VwcJRrtuNd-30" value="" style="shape=image;verticalLabelPosition=bottom;labelBackgroundColor=#ffffff;verticalAlign=top;aspect=fixed;imageAspect=0;image=data:image/png,iVBORw0KGgoAAAANSUhEUgAAAZAAAAGQCAYAAACAvzbMAAAAAXNSR0IArs4c6QAAAERlWElmTU0AKgAAAAgAAYdpAAQAAAABAAAAGgAAAAAAA6ABAAMAAAABAAEAAKACAAQAAAABAAABkKADAAQAAAABAAABkAAAAAAbMW/MAABAAElEQVR4Ae29B4AkV3nve6o6TJ7Z2SjtrlY5g1BCcSW0IDDY8MBgY/txjW0w2M82GBsk42s/vPa1QYFkY7gPfAHjCAZMNBiBsRCKgEgKCGklrTbnnTwdq97/f3pqt6a3e6anp8Ppmf/Z7enqCif8TtX3ne87oYxREAEREAEREAEREAEREAEREAEREAEREAEREAEREAEREAEREAEREAEREAEREAEREAEREAEREAEREAEREAEREAEREAEREAEREAEREAEREAEREAEREAEREAEREAEREAEREAEREAEREAEREAEREAEREAEREAEREAEREAEREAEREAEREAEREAEREAEREAEREAEREAEREAEREAEREAEREAEREAEREAEREAEREAEREAEREAEREAEREAEREAEREAEREAEREAEREAEREAEREAEREAEREAEREAEREAEREAEREAEREAEREAEREAEREAEREAEREAEREAEREAEREAEREAEREAEREAEREAEREAEREAEREAEREAEREAEREAEREAEREAEREAEREAEREAEREAEREAEREAEREAEREAEREAEREAEREAEREAEREAEREAEREAEREAEREAEREAEREAEREAEREAEREAEREAEREAEREAEREAEREAEREAEREAEREAEREAEREAEREAEREAEREAEREAEREAEREAEREAEREAEREAEREAEREAEREAEREAEREAEREAEREAEREAEREAEREAEREAEREAEREAEREAEREAEREAEREAEREAEREAEREAEREAEREAEREAEREAEREAEREAEREAEREAEREAEREAEREAEREAEREAEREAEREAEREAEREAEREAEREAEREAEREAEREAEREAEREAEREAEREAEREAEREAEREAEREAEREAEREAEREAEREAEREAEREAEREAEREAEREAEREAEREAEREAEREAEREAEREAEREAEREAEREAEREAEREAEREAEREAEREAEREAEREAEREAEREAEREAEREAEREAEREAEREAEREAEREAEREAEREAEREAEREAEREAEREAEREAEREAEREAEREAEREAEREAEREAEREAEREAEREAEREAEREAEREAEREAEREAEREAEREAEREAEREAEREAEREAEREAEREAEREAEREAEREAEREAEREAEREAEREAEREAEREAEREAEREAEREAEREAEREAEREAEREAEREAEREAEREAEREAEREAEREAEREAEREAEREAEREAEREAEREAEREAEREAEREAEREAEREAEREAEREAEREAEREAEREAEREAEREAEREAEREAEREAEREAEREAEREAEREAEREAEREAER6FQCXqdm3OV8/8HVG3vOWpc993euSh3Zf6iYSfjF6dW9h6a9rabgcr6VNxEQARFYCAEpkIXQqvHcm65be2130vvmpSd7uUs3+JPdCX8yH4QTnvFGwzAcCY0ZNX541A/MocAzR4znH0ngOx8GE37RHwuK/kS6Ozee6CpOr9mzKet95MF8jUnrNBHoaALhGy9L7R/clc4XU12JdNCfN8kB3w/6gzAYSATeiqLxVqKAw0kTDKeT3tAjB8KV//1UIbkzG/z6x+45NN7Rhe/AzCc7MM/OZ9n3vOuKgUnfsyNIPz1i+q/dZMyZK31DbR3gr49vzyvp7gDaBP9NaP94JvDDXNIvZovFRLY4lZjYvWLf6K6bN/DBGAuhgBDDQd/4R3DdiJcIR70wPIyYjhaheEzSTMHemexdMTW+xhzMyOIBNYWWEwi3Gn/b4bNSyVWFnuRooQ/3ZW/BhH0JPxhMGG+o6HmrTNEMe763AvfzMJ6GYdzPw54JB3eZfQOhSQ6Gftgfhl6XZ4pdYdF0pX3f8xPGpHGzp/A9mfPNvTuK5kd7A5OBXb8m4b8HBb235YVd5glKgTThBgjCcEsCCsLHzb57NDCfeSQw56/xzVUbfbOy1zO5oKQ0ypOmSsFlfEb4GcD1q6louJ9xMXheSRFxOwg9U4AJg/SM74fFEM9SMl2Yyk2lJ/eY9ZO7bvbGcNoIIjhM5ZMw4VEkfRRa7JDnhSOB748lisFYwSRGu1LZiVSxPzM85We8D2zLMn6F5U3giTed1eX3Bt1eYqLbC3p7wkJhsMsLBgqhWekn/KEgMBD+wTDu0WG0gqAMwiFsD+6YCld09UwPeFOmJ0yZXlDsgaDpxhOBtpVnutGCojJgwJ1bajxhm/dzqTEV2n12u3SSgQVvErguKBrzQyiN7+wMzOFpqBrsS+PhyIXm+ThVCoS8WhhmxFILU1ziSb3tRevW+tPhw3hO1lirYqa8BUjuPqiF527wzXNO8k0Xnijua0SIKhFpWmVT+obi4W98IuVzLC08mUV8+FDiiYU8MHSRTeEzgVbfJB7jcSiYo1A6I9jHz1F8YOmERzyTOFoMwpGEF4wVjT9eTCUm8uPjk8lVg7nTtm7PIjlEp+AKgcglVEglu3O5oD+RTPWjyocSgT9YgPBPWCsArf/QWgMrcMOsoGLAfTOIquzDHYSP6cenFxWbQv2mUvC34r+9t+Ll5P3OD29ruGpnlEHpjOhZqOfm4P3Lzx7Y4LQ6nuGdObOPsSdxMF80d95+934qkXqSKGVSfxdMANWg0EgCb712zUvwgH2Fsrk88CGi4D55wDPXbEqYM2i046RK55Zf24zftvJn7gB+8SGlvRMpHu6z2/iO8mkFBP5A+aEtaDI4PWO/Q2OtHSgeutrGcMFRfA7hOJQO+33gfvPt9tEw503S3dbvJyZ3dw9MXrD1kTzSYhIKFQjQJbRrdGOXGTI9fj7oy+fD/oRJDAQmGDIQ/GjDD3kJb6hQhGWA/gEwx51lBgEUSsAMAC22vT7s68LvbtRpF4Uuzp0liFkBrN9j33Y7PHZ/cj8P2m9uNznw/qPVMZ4NzXd3B+bhfYHJ4a6j1REPvEeRb7hzkxfdeveeHfFj2m4uAbmwGswXLbot+MDUPvEx442exGffeGg+/5OCOX+1b67c5JvVPXRFte7BjIocCQT+5nZJkZ2Y7+j8+DeKQS8dW6d9LBd8Exv4HbncuM3ALwgvgz4hlBHCKPDgdzB0kU1NBMWpocmRid1/tGF8V4CBBZ4ZgXA4MjRg4I8LgQr+OkQN4QDXeQgPnMftE+5Z5DhEelRo1QMbxB686XMEWF82q6i+qhDQOkehwiLOrHoOD4BDEWeccA4vR6EQTRiAmT0HJ2E7LGbzvpnMhPDohwOIYNAE3hC2h3ZMmRV+KuwLJ00vOpGhCLw+ZDWVRKETtAaQYcs5cgvNpMr65KZVCtE2fnNnvsL9yUOuBCoO3jM/htKgu+popuSuKlcezC/LBwZDhbB4NX5KgbSwEk94GFuY9pJL6t9+0SS+t99cN59FwYeD4eEDgXl6JIBbK9Fwt1Ypheb9jQSTTQE/KAnnCxRykHn8B3+4bQmv5A/IP+NB+PE4t9PY9ukjmRUljy42NCIO5qGGeOY9JXYCy0kNCNXRDScRe7m4i4JxVr/AzD6LBX+oA4r2Dw4skcD652fnaGjug7tqJ21X/E7NPDPVimkPB8GLcPxT1c7R/sYTiN3FjY98ucX4p9evOz0Xhj8GVPiZawtUNvzQrXX1Kb4drcVr51NCtcXeeWdRaPb1oNe1uyRAO68E9eWYre2RieVV5jgpCiJaFyOwNL4Lc/QRNK7Qr3GCuyp+TXybSgfPzBO9U8mLtz64h/15Ci0gMI9eb0EOllAS+bB4JUzpmpUHi84bnw8O3Vpf+EnR/MfjRXMEo0vY4mLLa9kFlDlPJw616DIJrGeW2brHlkmZ48Xk/U9D6vt7AvOph4rmBxhlxQZUJXdV/Lr4Ns8HxzMmeorPju/XdnMJyIXVQL5w0W+hRp7T0V4lvcit9ShaXs/ArXXZet9cfHLCdKOGGjVaq0rSTu2mzkRnsBWmPmEuhwDhl4MCWW6BjScqz2fgpqK7ahfcVtw3n7uqGicMDIDzM9iC4w9UO0f7G0tguTyijaVWIbY3vQQjXEJzLTp/KxytfRdbXRkMqr1re2D+7aGC2XY4sA8VH6zlEoiQSmS5WGBsfRegQJZLeXkr8z4fhbvqjieK5nOPFDBfqtRJvpj7nPcN+oxeiOiX0dPSXqkgBdIg/r2T687BXXt2I/ouKEj4gO2fKLm1vrLM3FoUBHTpLIfAuqbyoBJZDoH3Ncv6vd1FuKsK5iGMsmLRIwt8MQwwP4mXX/qmGzZsWEw8urZ2AnJh1c5qnjPDa9D/keZQ1UaF6KGybi3MIb8MkxCXg1srEqrsE1gOrXLrvuJts4TbzdZdhSI+dSQ098NdtQd9ftxHhdKoQIQpTows5Dic99ONilfxVCcgBVKdzYKOhIH3fMxWaErgQ8b1fujWevxQaK7G3BGurcXQQH3VlLzXGylHJRU5CmeJ36FUkrS2lqqipE5kQ+jIVGgewHyOxw6hgxxlbqTiiN9jTA9zcOjGkgKJg2nS9hJu8zSJWIVob7529QCW+fkxWlSnNVugU7Cy5XYuJiFexUmIWFuLLoFFdr1UKFV7d7E8vRjK24shvUutbBFZPny0PkYnoz1L6ztq+HDBw+/vKWIBxOYpjogcnw08gz/NF9KXvO++XdPRfn03h8ASb981B1p5rIWE/+xUaDY1W3kw3WNurYMzo7WWqlsLgmDJD+dFGalAqCCXkgUSzQHdhiU86a7ah7487muW1RF/HvkMguWZKT9zIfZ/L35M240nIAXSAKZYY+P6pO9jmSLcvS0KUevuW3Br/XTGrXXWzJLxS6FDFvLGurBocUVKs0VoW5YMFcdScl9RCVJRHJqE4oC76gmMIOQj0QrFEa80DOdN5kN/C/ZJgcTBNGG7gV1YTchdh0Tph94NrVMdx6HwgeWY+QN4YL+ESYhf/mnRHIKvmQ/sUmjRUvgs1eGtqDo7VJnDlZdC4D3HhQ7v21Eafv4YLGSWkQql1cG6PEOj4bwtAN+G6m1BqVqYxNuuwfLtifBh+F7XtNAAqVhCTjjsTWEc4/qEuQQTEfkShk6ehEhB0JXGcrJYstEKhYql7sydVPBTWMd4Al76Tlb2kbuK1sYDUB5szHBfO8vEtHG/HEFv/bNvu+fQns68Qzoj13JhLbKePD+4FKuqtl15sBhsBWbhU7/7maJ5AqNdrsaS8Wet4nKFnTnPgIIgmpXeToG0yFuk4uVUiHb4LiunAwPrg4riAPo37oO76kkoEFrhrXZXVUJHthhSv7IY+Ffh+L9XOkf7GkMAIkdhMQQ837+B65q7EpgVPsQH4Mr60mMF8+XHOtutxTfQLcVZ6ezbseVy5cZZQD6ONVS2F82nMRmQjRWOfmqHu6patq1g860bq9op2t8AAk2audCAnHVAFFu3Gj//dN+fY9z5Ka65WPhAU5nQpfA4HnC++nYt3iTBNyG229W2kKplq5ZrYqXhmlsqgfWSxXI1WQxrdajtMS/eaDDDT3E/3YHVEX6KUVal1v68l7blBHp0X3TG5Mfu3G5glys0g4BcWIugmrnzpE14L9Cz+E5yV8Ox1iLcWlQkfBNiJ7m1KGCX2nBe3i7WfeXqTVOWL9YBrYu9mD3OYblP45WyDPUuelgWfVN+spGELJ8zWVx9AcaFfb8piSjSE9/uJia1EwiD4hUYvjvQyOVLak+99jMpAPgmxINwa30Rbq1zMAmR7x6hRcIXojus/2whOSOdn8QSsZc7aXQZGyCcAPgg1q76EdatYh8b93VCwKulk4WCfwPyKgXSpArrkFuhSaVfZLR4PevzIZc7JrAVSdcWh1hyIbu7MWqmEwQCFdxSmS9BZd4JiydG7qqH9+Ne+XHBfAcveeKIvk5RHnwoed/Ac8vhvApNItBJ8q9JCOqLduuFJj01vPZBPGjP6sSJe3y4aH2sgxXCJVHOWcUXqbo5WgvZNGk4Wzmct9MDFcg43pc3jbfCc9u1wAYGP3vGSu/o2A53FfPJfZ0WmG/c54eSafOsd/7Xgf2dlv9OyK/6QOqspYnhdZdAeWD5doq3zgt8uPD6bevW4kits1aF6B8pubVcW1uLsisaztvpL5lydfFEMqbVMQ7FxqXWucw6JwZ2ksVR/hTy0YTVvbqQ967EsS+WH9fvxROQAqmToeeb0/C8deEZ6+gQDb1kB/vO0cBcgrcgXopJiJyQ6NIkRGsxAXYX+kE6VGdbC4/v+eYQXpcCFQfz9GMoje9gTsdRvOiJiqOTlUfEFyMkOezwl/FbCiSC0sBvKZA6YfZNJr402Vt8NOl5Fyz2LYR1ZqGhl1FYcGTQvRhlw1nFXDLeJbcWlQb7QTgzvWMDZJlLiyfSLUX5ylfJcnTVDrxa1lqmuBeWSkDxOMFx51Ipj2vlWCLjWlqP9c694/nrT+3rw4zXF3bSvIq5SFF4UKhMYo7CE1ig8SB89SuxXPxgl2dnGc91bbOPMW/MBOeD2O1mJ9ik+Ll8ycwQ0yalMH+0RMkGwzhGV92NyYB34XMUS6rQEulktuUlZznhjh0vhN4b7t8xebT8uH4vnoAUyCIYXnHa0E74U34NDx3eWrF0QtQyPTgzCTFfdGMSIq0QKpBO7QdhP84UO8/beKtQcdA1SXfVHduK5pkZq4N1vtQCVuXFcljeF95z9/6/W2plc6U8UiCLqIn7nhkfu/bU/vPwGs1LlooVEsdBoULf+A64ODh5rAfCmy+w4n7I8pYHKhDOBenEWels2XPmeQ7WXTta+awzKl66qb4OxcGXPLE/xlodLa/J1iSI2yVEud969zOTT7YmxeWXCm4phcUQ8MLgY4UwxKO4NAOFHVutXCaeo7W+iA+XR+G+lgtC5KVTZ6VT+bVj8UQgszPGR9Ex/vUniuZzjxTMbjQIWH9UKks1cHBIGJgfT/YNfmupltGFcqkTfZG10JM8eP9Uce0D6Au5prgUzZAZPrNGa41gtBZGal2CZeP7Wjhai/KuiI50WkVsOXdSYJ7pwmqlzKaSyCLNH+wOzPd2Fc0ELCBy6zR29dQzVsg2oWc+8YGvboPTUKFZBOTCWiRZLNQWXLupN4QCefkS1h/HKLHVSmH4DN1aR0LTjSbIakxGtC2+Y2c1b4Mt+STu2lQHNX1oqbVy8UTrrkKaTx8NrNXxEGaTs99jKbur4ncceaPz/EiYKLzpnu3TY/Fj2m4sgQ56DBtb8EbGli92fcF42Z1o9ZyyHJQIH1BOQjwyHZr/wKqsP8EckmuxSOO6fo8PbtPnadCN1d1hw3lbsXgi64WKnPXClzs9hnrhxEVaIsspYGg9lt8NPn/rnUd2Ladyt6OsskAaQP3+XWPT6Ew/GaM+rl0OCiRCRoHFzyEM9+US35y5vKbft1ZJszgwPVohnA/C7U4IZMHhu80MVBLkz0UPv4FO8t1YioTKZCn3c8zBs2gC85Z7dkztmOMcHWoAgWXWNmkAsSpReIH/CazKO90hMq1KKerbTeHFET33YhYzF957lO/DBoio36S+WKtfRYFs+xM6ADY5NHPxRDLmZxsmf/LlTt/eHpgMRnotN6sjultKQ3fNd9k3Ge3Td/MIyAJpENt7dk4cvGZT75XJhH9us1rfDcpqU6KJFMYUJyHiRUOcQzLcpEmItEA65SVT5MKFE6lEuN2owLioJA5jdNydTwXmPrisJmYURyPTaVR+WxUP3w6K/p6/fOe3J7/bqjSXczrqA2lg7eP1tv8Hwu1lDYyy46KKXCZUIjtHC+bik31zGUdrweXUqLW1KCA7ZThvMxZPpOKYhrL44d6i+cGewFBpc99ybw3y3ssH4b6U7+s96C2SHFIgDQSdz6e+HiZzj8KMvmApD+mtBRkFGt1a98GtRWVyDV5gdc4a3/rkOYprsYFx8OPykNRI0TWivORFVxWML/Q3sZO8NB+H+8hagfcCZp4XzWfe9e19B8WjNQSWe6OloZTRmV647tS+ftzIS2Z9rMUAogClgGNrmUrkwKQxw92eGcKHgnAxgW4sKo8U5qG4Glj+acy9oLXE7XoDr6WSoFvwm3BXPbCzaNcr477FxFtvfly9Dq7jvAkSb4Y7eY+reVxq+VLbpcE1mveS/5ovhkf0YB8HS9cCP+zo/beHC+ZbTxetUllUyxnxue7GopJbrPIgI3aKc9HDT4Mdl90nSypmheME2HmO4Xl3975wr15fexxL07dkgTQYMdfH2nxq3/m4oS9ejp3pc+HkM04mXI/pKUxC7IIDdQ062mlJUNguJFB+8pouWCCuKmuOFOPiifWEyDX3U4xo+xqWIKEFF1ld9cS31K/hez+A+x3v/IfJHy31srpUPlkgzaiNMPzoUl4fazHIKPhTaLaMYG2mr2AS4ud/UjT7xutbm4nKyNXhvFRq9VhIvI5WB5l88ScF81UwOoqJgXJXVb/r2DApYmHhQiL35epn6UgzCEiBNIHqZScfvA+txfvZqadQmQDR0A3z5BG4tTB/4c6ng4W7taBAKKRdDLQWFrJ4Iu8UKgn2F9HF9xm4q56E1UFOuo3mrmEO3TW++eT77xwZmftMHW00AbmwGk0U8X36URNes6mfrpllsT7WYhBSOHJQ1k6srfXkAt1alBuuvmSKw3drdV/RXUVr6tEDeEcH3FXbwIFB/RwWw5x/eAuA3bQXFH7vnp3TGn01J63GH5QCaTxTG+OLNiSeyXrJ10BADpbEQZMSWgLRUgjY0VqwJujr3zeBNyH2lEZrsXhz8WNL37WXTFGx1bJ4IpUnlcdeLDvyjW0BliEJ7Oq51l21BOq1FUWwM8/D8I7b7j78161IT2nMJiAFMptHw37duSs7fe2mvg3JhHcNW5cK8xOwnggIVc6uZudxpuCZNVjplyv+VmMYdSy79pIprn3F+R/WSiorOhUmlcRELsQ76APzraeK9n0r6ucoA1XDT3ae4//b8dKox2o4Xac0mABuY4VmEfBS/scxpHdZro+1GKYUpAUo3QfwDotPYm2th7EcOUM0MmlW3JDGnLBIReJKoLKr1rnPMjCrfKUs1w37HqwOlpVlVlgYAVpwmLD7eKHLu2NhV+rsRhGQBdIokhXiuWf7xMHNp/VemfCX5/pYFZDUvIut9Lhba/8E1taamYTISCJ9wfOOubH4o82BFgdfW8u5G/HsRO6qXejr4Wq5XIKEq+daq6PNee7U5GHd0zL969v/+8A3OrUMnZ5vLWXS5BrEOJplvz7WYhBT8FISP4V3smOiv7noJN88d0PCDHQdX1uLHdZcrDCJfS5YInkoD6vhkG9mn0piJBua72JZl0fQUU6LSRbHYu6KkmsQ1v14mDL/sriYdPViCEiBLIZeDddG62OhsXRBNT9+DdEs+1MocPmyqu/C5cPRWldhba3zsbYWXUJ0F3E4L98R0u5gF09EfmiJMM+0Mn68t/RK2VH0izC/Uh6LryW76q4xX739m/ufXHxsiqFeAnJh1Uuuxuui9bEwWkTrY9XIrNppbM3TrZWBsthmR2uFZgXcWiswYsu6saBAKLjbFZg0rQuOwOJy85xx/3W4q34EBcL9VB5tzF67sDQpXS8MguCme3dMbWtSAoq2BgKyQGqAtNhTklwfK8i/HSNGhl1wsSy2PO2+PnJrPQ231m64tZ4Dt9blG33TF3j2felR/0jL8wntQAtkBDPH2TnOeR0ciSWLo7E1wQm66Dx/6GCy704sMdnYyBXbggjIAlkQrvpO/jbWx8Irb8+EFXKZ3Fj1Max0FRUJx2ftwjyKJ7BQ44YVvlmF97K3S0kzP9/BsNyvPFa0EyNpDVllVynz2lc3Ab7zHIr69g/etfvbdUeiCxtCAEa1QksIoLEMeaLQYAJUFrQ4uET8KswZaZfyYLGoMAa6S3019jf/KDSUABljnbnDJgz+taERK7K6CEiB1IVtYRe9bfO6l8En/gd4Z/rCLtTZcxLIw/zoxWq8zz8jYV55QdIMYhRWOxEz7XNX++YXLkyas1bBzYLf7czPnPA69SAfodCkjZ/c2KlFWEr5lgurybV50/VrfjbpGbaWtKRJg1izX4GuoWet9c1LzkmYM1eW2kHtXtKErWN2oHejp/9cjBDjciyHpzjjvNR5zuMKiyeAuueA7Rs3nzLwDbw8Sp0gi0dadwxSIHWjm//Cm65f+6Kk8ag8htQSnZ/XfGeQIVv1Gwc988KzkubyDT7eKVJq6fNaDuPl6Kd2BSqIHJSFXYUXmViH/hi+xpdDTvk2QQ7pVZ/I4muHRgj6E4dDL3zhtRt77rhn59ThxceqGOohoDZRPdRquOaPrl97DVbp+QYERo9cVzUAm+MUCgxaHXRRPXdjwjx7nW/SaPoU2IMeCwN9WFgR4wp5fjsCFcgELI4MXiIVWRv85tBjzqTnuldcvp754z6FxRHgQopoUDzmB8WXv+vuQ48vLjZdXQ8BWSD1UKvhGrSMip7v4bVJ5hwsuTDQLqFWQ1adPiVyV1FpvJjuquGSiVHJoqMLK9nGgenUCRlYILSS4vqBeR1Iw62F/pFVeAPjkWm5tRpx0/GZ6k76q7NFc/6VG4Y/wzlXjYhXcdROIH6f136VzqyZwM03rNzoFVK/ixfe/Ca8LasxgqStI4VqznibT6TQ5WfjkGeu2ZQwp64ojbCqpDiYVY6+6u+FQKF3nJKlTWEMS9Fz0mC1B4tzQqbQT/L9PVgPCxMM+QIpzRNZWGXRquNQXligRzw//KjJhR95130Hn8TuNtb8wsqwVM6udp8vlfI5U463b153BpTI74dh+BuYCDUgt1blqqEEKLmrPLir/KruqvKrqTT6eozpwTDadiqQUSgQvF51zhB3a923Ey+Qwqx6llturTmxzawrZicRjsFH+PfFQvg3t9974Mm5r9LRZhKQAmkm3Qpxv/W6ky5ImPBtaE//GoRGG7t8K2SuzbuoOJJwql6I0VVXQHlwmRLuo3CdL1Bp9EKB9LZRgTAPVCCcjV5LoMJg2TgJ8j70j+xHRzus1GP9J7XEsVzO4eADsAIh889Q0e+/7a7DP1kuZXe5nFIgbaidmzav+V/oAPyf8JVLgYB/5K46Be6qa+Gu2gR3VbSv1uqh8O6B+6oPbixutyMw3ZHxhadPFxZdWT/YW4RrK7AuLrm1jtcgFW0Qeg/6xnvtu76979HjR7TVbgJt7HJsd9Hbk/5N16/7U0D/06BdUq49xa6YKuU8R1LR0qDFwXkdqQqjqypeXGFnm/TGsZzUW6VkwNFj7Os5e5Vv7sOy748f0mitCCwbE3D7nREEhTOxTwokAuPAt0ZhtbAS3nbturck/fBWCpp2C7sWFrtiUnRNcXVavt/jxWcnzOkYXUUm1TrJK0ZStjOBu7kLI7HaFei64iisegPL3o/RWudgtBZf5XsUo7XGOSQYEbLfZDkHlL8Hi5G+9OpT+x6895lJ9Xs4cjNIgbSoIm6+fs3rITA/ABnhL2flQSHJYa6b4K76mbOT5tL1nNNxfDJg3dUBAUuFlG7jO0GoQDgTfTGB9wY/VCDnYRIiLZMD8PxjqOqynoRIJlAiXZhb9ZKrT+u7G0pk12I469rGEFjm7ZrGQJwvFrucifH+gw/BYlrY86Xj8nGWna4avpb2SrirLsC8jhQEPvc1KrADfrC/UbEtLB4+SJyBPj65sOvmOptWBzvVD06FtpOdbi3iWs6jtbiUO9y/uzAI5f+65a6DP5iLn441n4AskOYzNptP7572g0Qq9MyleAAS9frKW5DVpiRBJUFlcfHJvrU6TptnTke9mfCQRnebLBAKe74ZkRYIlUmjAhscvanSJMQ1WBqFbq2xZezW4rPTnfQGsZDmRa/aMPwvX9PkwUbdanXF08h7va4MLKeLsCrvjegDuQ1rI12yHCYUUvjxgeeoqmtPTdg1rLivWVYY18EaggVCYd7qwDS5hAmXMmlW+hyZxbcx/hATEB/ERMRJ9Lcsp9FaHMqLfhAMkw4/j4133HLX/oexC3eUQrsItOFRa1dR3Uh365UrB6e7Ejd5ofeHvu/1LsUJhXyirbsKq9HSXcV5HeyfYMd5MwMFzNBA8wT4XHmn0pjCO8+nYCE0S4EwfcZNt9YhuLXux2itx+jWAlfyXaoBxeXiibyndoRe8I7b7jr4iaVa1k4rF+tGoQ0Ebr523VVYhuF2CITNzWqRt6pYtDLYMR4FLnTItas4k3wQ3Z61TgaMrq/3m8KVFkg7VuRl2pNQHtNQItxudrCtcSTyFF7re++Ootk7Htq+EVYDk29FHppdRsbPlYzR5xGiQB/Pm8TW9961Z2cr0lUatRFowa1eW0aW41mXXWZSLx1c9274c9/caZYIlR4VAwXVACbwbcIw3D4MoT2IVWc5n2EDllxvpruq0v3CvLATvR2tcaZdvhJvpTw2eh9dWFm6tfYF5nu7iiaFUVu0/ibgTqNiJwsqmw4NIfL+UCHw/vTdd+//UoeWYUlnG7ebQrsIvOWMNac+c9Rcn40339uVmXnSZcuWrhIqBQqtlVhV9tSVnjl7Db6hPFZgGZEJtMDZCl/MZMB5sjHnYQrMdnnEmbZNf84cNv4glQXrg67C04cxWQLKfACuwyfh2nriUGh2HA3MKKyiyM3VKcqECrkn6e04pb/4ktd/8dCexpNTjI0g0Lltk0aUvo1xfPgVa8/cP+59abpgzi866sOiQKRu43cXmhprBzxzJl7VehbmJ6yHhdGHEU980GmJ8LOQdaCahX4Q7wRhKxxZbnmYbyXeZmeIyiEaSMAhzay3MSiPnSOhefxgYJ7Goo2H0XfC0WLRuS4LAPR7hHir4z+99apVv+ltfWQRUzSbTX75xu/y/bNka+V9N558/kgQfAbLfl/gmusq7prqh4JYP+RbK+MMKA4OI6UiiSsWVhKVSBaPN+dAcLudoZ0vlaplJd5WsIkzYH1w3gi/p1BHe8ZC8wSUyZOwTvaj34Tur/g5rcjfQtLgJNO+rvDvX3jqgTde/hGzyGmaC0lZ59ZCoM2Pey1ZXHrnvP36de/Hg/H7Gfof2hzYUo9cU/SXD9M1BVfI2as9swkuqmG4Q7jf9mcgu9Va9vT/U4m0U4EwbwNYTJGvtqWSa2WwrX0u5d7mKmU++E4UvhulnEFcUVBxHEB/FRXJNiiU3VAsU+w3ATTX+k1SUCJp33z8pL7E7/3Wl/bgTlNwhYD6QNpQE0Gx+P9mAz8JE/13i3jKWyzrZlkQtChOwrIiZ0JhnIU1mDZgO+6asooDLo+5AhVQfqYlO9d5TT8GkO30BpYL7KaXt0ICVBKsC9ZJuTJn/gozNxutEtb1KZijs/kM3xyBa2s7XFyPHyz1m9D1RZYuKBPme6oQ3vDUUbMaRd5Rodja1SYCskDaBJ7J3nz92reicf8ubKaaLfgYfzRqigpiPYTH2VAY1jWFvo3uCq6pWtBQSGUgbNiBXi6warm+kedQ0LTrpVIU2HRhuaBEyJQWCBeWBJKaAvtEIktzDC9i3oHhwU9AmTx9JDRHsBYXjeV29JukkCju228VPPMb775r/9M1FUYntYyAFEjLUFdOCErklVAiH8EM21WN7Eyn4JjlmoIrahNdU3bUlGdWwFXF0TtULDyvVkFTqRRj6PuwFkilgy3cR+HNF0rxxVKtFuR8CyEViAuBZacbj+68euo1rig4233P6Ey/CSyUAy3qN6Fg4rpXeCb+fipX+P0PPHBkzAW2ysNsAlIgs3m05ddbn7fquckg8Y94YM5dTKc6BUc0aoqruLLTmxYGLY0NcFWwU5xWAi2RRlk8FJwcfVSPoGo0bJa/mv+/0WmVx8eRTeTgSmA9c1Y+lcFiAuOJOuFtvwkUyJNQJOyIp2KhguE5VuksMq0onzN5xq3sbcVyJX+FaF24vaLs6TtGoEFVHotRm3UR+KPNw5s8P/VxzLx9fn4B0v0E1xSG154JhcE+jbVQIN10Y8QUS12Zq3IRBQeX7uASHtxud1hsy7ve/LPojV6Jt968RNeRBUdjNXJAAcvJYcIU8HRpHYZriy6uJw6EGCoc2CHDvB8X028ys9ruiAm837317v3/EpVH324ScOCxdxNMO3K19YY1/dNF/2/wAP4G3VmVml3cF3dNrYhcU1AYnNjHUVSNck3Nx4BCiu4rWiEuBLKh5UXB2cpA5enKMOao3MeUKVhwuxmBiiTqN+FkRU5atP0msFDYKU9L11omUDq1CBqud4VlS7Yhu792610H7m1GnhVnYwnUUq+NTVGxzUkAD4+HYb5/gvcdbMWJCbboKADirqnVeNmQdU1hQh9H0nApEQqxRrqm5swkDvLGca7VjTxxFnyr3wlC9tMYAjvZxJV456uPSseZr0a4sSrFXb4vUibcPwkWHBZMZcIZ8RwuzHuF+YncYeXXc6guO8tNzvv1W+7ft738uH67SYByQMFBAuhcfw0q54OwNoY41JajpqxrCn0a6zhqqomuqVpwUBi0Y+2n+fLWjpdKkUUrVuKdr+zlx9nwaLQbqzyNSr/jioLLz7PjfRvmm7DfZC/nm8z0m1CZlBRPqbM8DII333bPofFKcWqfmwRQhQquEth6w+obbjg3/Zlz13qruNZUq1xTtfCgZTSGR53fLgW6VAa5pHsLM0WB2cqVeGstGquGQ3k5pLddgfUQ9Ztg5QXr2uKSKlxaZReWWJnOmzw6y//iVnSW41TH7qZ2UeucdFv5nHUOFUdyGn54fW/2sPfjZMI7MxfNAHMgbxSYrvn8IyzRWlDMY6sC03LRGmP5mbd2LXFfiX/k6rINEAzAwArCN7/kY/tur3Su9rlPAO01BVcJTO/3ngMBcFqeHSAOBbpGco6uSsS8tZqWTbPVidZ4P3DAhROrBMzkl4qDlgj761ZhlOALzkmO1FgUneYgASkQByvlWJaS4XXppHvvUHdNKB3jFW20QZhTibTUbxaVdb5vWCBU9jZ/853bhuOFYvCSNiSrJBtEQAqkQSCbEU0YmC34OBXoEuGIGioRF0O7rAGmCzTOBeaJkxxdrK+Ctay9K8J3bRp2DpwyVBMBKZCaMLX+pPF3nrQGqV66kEmFrcglBaV1X7koLWcAtNoAYXquDSaI3wtUHtEw2vj+dm/TjYWBIeszQfHidudF6ddHQAqkPm5NvypV9C/B2Pi1fMhcCpw0WOCYfpcyVZaXllsDrdZYZeWd9ycqK++gG4vYcI/zVtoybxl0gpMEpECcrBZ0MvreDamkW2Lauq8cFETxKqRQogJppYZjejbNeEYc2uZdRDeWa40RIqLlBnZbwq1Gssihe6bWrKjSaiXVwvP4MOGhv941vzUfdrqvbJuxhTwWlFQbhDmSdFqBkB/vJVohrtUdRxhi1YWLMsmTT1lQPetkJwhIgThRDbMzkelevxGP1bNdGr5LwUPXlYut2Nn0Wi/MXbY+IjauWo9slKRT/mDo+VdGedV35xCQAnGwrsLAuwLLlwy61jHr8nDQeDW2UqDTPdTK9OLlXOi2q24smtth6N240PLo/PYTkAJpfx2ckAMvNM/nOkEuBVddIJUY0aXUsmCFHwRgyxKsPyEqOhfdWFwaHgQ3h1tPw+vAFDqJgBSIY7UVfviyFJ6na11yFdH9wdnMLuVprmprtUVgLcUO0CCuurH4EjXf986aTOXPm6tedcw9AlIgjtXJxOGDZ0Nen+vS/A8KZK591SmB+W2pEukA5RHVHd1Y/LgUWFfdSZPyw/B6l/KlvMxPQApkfkYtPcMPg2t6Ul5XSwXgPCWk+4pChy1Y58OMS6mV+XStr2qusvO+ctGNZXWw5z9/rrzrmHsEpEAcqxO8k22LS1mybg+Hly4pZ0Ud11LlC8nX0vTKC7zA31F9upZnLmuCf1eEWzeuXGCRdHobCUiBtBF+edLh7evwAlLvSpeG71LQ5GZeAFSeX1d/29ZsCzPnmjCer+h2NQHH3FjsX8OyJidPJoJL58u/jrtDQArEnbrAa1FTF2JI42kudVa76DOfr8oo0Fsl1KmsrAurE9x7M+DIxjU3FjmmMfTQ8zynLPD57rXlflwKxKE7wPfDzV0pLN/uSJ44Pp+CplXC2JFiLzwbqLAO0h+2L4tzelxc6QAuthtCLWuy8HuwTVdIgbQJfKVk8UBvcUlYZ3J4f3WGvulSoP/82KdSARzZR4at4tjKtBqBN6o/Wk0uWbos28yyJs/OdJ20qRFlVRzNJ5BsfhJKoRYCY+/csMqE3mWu9H9ELeqR0aJ9sPFaXcNPwn7gr8Y3xu7b911TKMVDq4R3PM34thXq8R1N3m53eSsVb1adQFlQYYTIKJVGER3WdE3Sulyz0ndmdB3z2JX0B/Ce9KtRpu2VyqV9bhGQAnGkPvy8uTiZDk8qzcptf6bwLJuutGdOWpsyu/cW0JEemNwxW6RkiVCBJGDD+la5QKlg9eAElUrC2G+WIi7IWipoWYAWhFYrq3iR4my53+YF5S5CEgdQEPwuFKA0ZrYDKA4KaX7YAFi1ImkbAC2tl3gBKmzTbYo76AU49K8VDmuXYwSkQBypkETSPA/Lt3sFuI1cCRQsfT2hWb0yZQ4dyaPVGsxSCAEkEYWTyR/PM4UahQCVCpVJAsrEKhb7G/uxj+fEhV8zBJgVksja8Zw1h6rNexMTiXNiCZgeP2TPPozImuB3pDgCnBCdF5U6iof7qTzWrU6Z/t7SedE5LnyzAeV54ead793Yc8of7pp2IU/KQ3UCUiDV2bTsCB5qb/qd4fOCAJLVscAcDfZTUKXN0bGsbdFGwohZjW9HWafwDtDyzVNazQSex09ktdAVRsViXWEzFkt0TnQNpf/xGI7trW2j7gtriz46i8k0IqlyjlQOkcuJlgNdTlZJWEVRUiDlSoJ5iscT3+axSHkMr0ijTt1THswj54P4nnfGyungfPz8PvcpuEtACsSBupm+bcMGSKGLXOn/iCOhcEwmA9PTk4AA6jIjVCJ4yMuFU/yaaLv8HAow22LGxMRI7PIcfiA0rOuLCiVSLtY9BovFh5usUlxROuXfx4Q64m2IdC9PYOa3jX4B2qNSGayyxR/rZqJyiD5QIJGVEdPDNuV4PPHtKtm0u0v16JmhgS5reSQw1q883rmub9Ux5pPLmkznvOuxKQXSKvB1piMFUie4hl4WBM9NJxMrchAeroaergCdrgmzYjANJZKrWYlUKk+50LOKBX/Yyj7Wz0LFgotnWyzoW5lRMLavhYqFCdg/pZSsUATGlghHpMt0WGtRFiqVjedYdx+VAuqYCviYwpixNGw8jGgmxOOJb0fHF/LNuGntrRjsMt3o1+ruKraGz0IyGTt3hin7Qd4f261NBwlIgbhQKYG3JZFCRtif4GhIJkN0qgcQPL5VIkehRNhaXqxwixe3Ulzz9rPQFWaVSsm3zw58TEabGXUUj7052xR2DCUFwH6IyNUUfZf2sRylc0rnR3/jZY5vR8cX+800yYfKg99UHrToonwvNv5mXM+FRNFTdvnY1vWrB7fuOdSMNBRnYwhIgTSGY92xhFtvSE6HT2x2bUx+eYEocLq7MRIr76M165thWCJWidiHvfzsxv6uJFiRrCmyn6WsA5/neuyoh6LrTjd3iCr7KTjKaRRDnVl/0SincuEcz398u7GUToyNus0qj6G0/U6hEZBOu+m6iueeXJOJ8CTUMZc1uSN+TNtuEUBbRKGdBLKJx89Ec+s8l5Zvr8aDfRLdcGVRQKZSJUuErqRygVnt+kbvp9vIKgwqjRkfEvNCoY433Nkhxo1OMx4feWShwKYx2ZJpUqkxxPMU5at0pHV/yYHKY3ioy6Sg8Bl6eiCZOyAQI0YkcjTflg7I7rLOohRIm6u/4HtXd6e8nnYJ4YUUn3mkAqE7i8IS77K27iz2S7iUf+oSm6eFFK6Ocyno6C5rl5KoluVIebC/in0fbNGz3miBdEqwFrnn3RD+ooFTUsFVAlIgba4ZCLstM43nNuektuQpLHvhymKeKagiJcLOblcC8+J7rbm1yYN9Cq6ESHlElgd/cy5Od7f7rqs4QzvSz5hnZS/ddGp8v7bdIuDQre8WmFbkJty6vhfvP7+ar/TslECBlErBl44Pt/mhEmGfCIWpCyWhAqFlwLw1M9j4kY4rypP5KXWYlywP/uaH1kfCbzKMBoPmI9GV9PoxeZXLmig4SkAKpI0VM+WH56P1ejqHr3Za6KEVMmN0UEil0WHNkT6cz9HOwLywXwbOpZZlgy18ptvOwPRLHebo84BC529miW6rqN+qnfmrJ23eSmgGvKCea3VNawhIgbSGc8VUvERiM1pZHeSZPl4M9oPEBRMFVpdVIrREWie8j+fo+Bb9/hSezRbqkZBmf0s7A/NxTHmw7Cw8AnMVV/R2Zwf9scuaGLOZlnoHZXtZZVUKpE3V/fTW0+iVfuHMs96mXNSfLIUUh/Wy9R0F7rNKZCDV0PY/BWHaC0zaL/W9ROlV+05ieFQkRKud04j9TIMfKqxaAsuQgM+ykSFKf4UdbXVceXB/GvN2OmHYbjUedO3SQs93hVzWRMFBAlIgbaqUYZPbDE/Li12efT4fGg5j5Qx1CqsocLurK2GG4M6qTaxGV87+5rWpGaUxFSTMfWPD5v/sOcVMFBMG6mH2ybFfNH4iiyCer9gpDdtkLpgG05vP6OK594wOm52ZHqtEuqAM/UUqE8YZ9Xlw2Gu8vOzY7+mwjvPyirH3Eiz0XNF7Acq6mNupPGr9bhABTSRsEMiFRlM0me9MTPb8Z3+393MhBAkf+LgAWGh87TjfPuBQINmch+U5jj/f3N/dhQKhY310HIuTUNLVEBhDkizwGS8kzUNTA+aBsSHzg/FBsyfbbbKBbzakM+ZnVx/E9vH04lGzD4ZClWlyLgj+xg83dLuURmmUE7tdqo2FYJmemOoztz9zhqHiuKBvwlw9dNRcPDBu1qRyUD6YR4KyLWSWBtOOlicpVx48RtcVJuPVzL6hYBoYGa0QL/TedORP1v+r+as9OxsYtaJqAAEpkAZArCeKVVuPjG2/af078gXvRiiPrhSWMunCh6365om8enI69zUU0RRW45MxXxb2UYh1wxKBI8WunVUtFl5Ptw4/U7AuHoOg/c7oCvMglMaubI/JQ1FQAPNjIHz/8/Aa87zhI7BOIBzLIuVvLiPPUVFWuJcdb+RP5jtSGHbYMNLlCsSVAnJjvop8UwHyjAfGVtjPaiiPZ/ePW2XyLCiV4VQecUIZ41M5plLskfIY5vIkZZYHz+BCifH+qdJVnfWXFh3facL6n8qFn1m9ac++zirB8sgtnwOFNhLYedPGf+lJmV+ZxoxmWiFpKJHudKlVy8qZS5C0MdsnJD0BBUJLpNyVw9/TmaK1ROIXUWFQKWQgVLdP95rvwdL4Dj7PwMVDQctjlfoLKFxvPvUpq0R4XjxESmsYS3dwe7C/aEchNYMhy5XJGTM2BaWF7ZGRgslmT1wbjOVgmd6+7VwzjfzGcxwpC1pcJ3VlzWUDo+aqwVFzTt+k6U8UTBFl5Seef27TwqqmPHh8oDeAG3G2azHOydXt6H7nQpNZsKUCyRXNLjNpLt74wd2HXc33cs6XLJA21z7Ew23w8b4ClkcPW7SZLB4aPDzJGUWSQg1RWFEguhxoheQLXPJ9di75u6cb+2mJjOdNCo4adoXvgFCNlMZTUCC0PiJLhG6eaoHL7NEKuXpoxDrFy5Kb1aFtLYRIKlWLcBH7bVmZAaRBS4AKpDxQOXzt8GozBpdcebl4LI0Pw/5sl/liZh0slbVmU9e0ee7QqLlycMSc3jNlusGDipPKJAXlwf6lSpYHY0pjdBw7z8vrwSbi6B/e35wtn8cy/1TKeSiOEL97sXKwVwz+ZsMH90h5OFp3UiBtrpiNt+/+4a6bNny6J+29llaIVRbIUw7vq+Y7q5PwAnXBIqFl4nI/SbRa73TmxAUMKcy6u5ImAQXz0NGU+cedJ5lt030miwUPI0ujXLhWq5YkOtYfnhgwP8bnUrTY84gjHjgCi4FpNluIRi4sphd13HM7ClSIuzPd5q6RlSY1z0S+SHny2u1Qrk9CqX7h4FpzRg+UycCIuRxlXd1dMCdhhBsbFZXKRl3J9a46ocHBcjK/XLKE93oWH1oeVILcT0WJ5+GZMO9/FD8VHCUw++lzNJNLPVtJ33t3thhO0RUShWiTkwwn4CYZmzBmKlNqqUXHonNd+LZKomxYbzxfdMScsiI0W87Jm1+9YNRcunqmZQ0fdyVhGL82vs2yszXOPoXyQb0UnHFBXupEj1/d2G22kqNQaSQWlePXj6w2R/OpOUeORXFE37yOI9CmoHAfHu83355YY470DpkNeD89u5Uq8eI+uq04cbDS8Sjudn+zjhgKsDYm8MLaUdzXk/im8mCI7u0Uu89C89envG/XEXtAf5wkENWXk5lbTpna/UcbP4o3sb2OVki1wCNUMuxsT8MqoXXCCqx+RbWYmrOfwiGT9c3E5IlWCFNk5+7wYNHO58gUffP9w73m359Zab65Z8AcyKBlDcGZnKelznhYXrbY/+rMx815vZOwQkq3MTuzV63AbHh8U4j2ojXOTzMEKss6NllyuXCbLpgjeG98lBbdU0fyaXPTE+eVFAh+1xIKUKgsz3C6YDavmzCvOPWouWrthBmCW+roRMJMTVdmyzwMDRbs/VFLOq0+J2KUg+Jg/wYVCFlxf3nARHqTC8xThd7UZadv3T5Sfly/3SEgF5YjdVEoFN6TNYlfguzri7tG4tnjs8aHbhr9JPQV061F95Yr/STMG186lc1CCGJYb7ls4HG6LDJwO/HYVWsmzdVrJ8328bT5yq4V5gs7VpjHR7tLK/1C2ZRfH7Hg/mn0mbAv5LxeNGFxJqK2S5hQeUSB6TUrMO5jfSxIhGs30grhsu4MVIbfPLLKHMilT+j7sCfE/jCuHBQHhenZgximvHHU/Owpo3abxeGxTAF9ILGh0rHL7T1BRWlH8DWxzPE0a9mOaoIzytmvZ91U2I72V1IejNdakUXzfimPWii395yoLtubC6VuCey6ecOHe1PeG6fmsELiqCgrWIEu9ZNQKOQwGqt8WC/zzWNDA2gllzlOrcsGlsfRXNJ8e3+/+ez2leb+A31mAi6cNPbT2igP3MPO5VvPesxs6s7Y4Z7srOcS5hTI/NCl048RSc0KI9Bd7PCNHqLR0dJILOgRMw4FR+tjf66rYv6ZJ7riOEx1KFW0VsbLN42Y69aNm5VdBWuF0BqJhzFYIBj2fSw9HmM56bYawIizagI5HkcrtpkP5oud4rQ2+E0LrZb80frIB+aJ6emey8/+wLaxVuRXadRPQBZI/ewafiXa0e/NFMyvoNU5UM0KiScaiRf2kxTgR6ZlwiHAtEzaNZ+EgoMr9fJTPqyXxypN7qMg5UTE3mRgXnbKiHnxhjHz8NEe87lnhs0duwfN7qm0FcLxjmiWnSOb2Mfwxg07TR5iNepAJ6OSsCq5smoRXHGutWwHEO4hChTVAdOIRmKloNi+BetoNyY/lg8OAAIMTS1ddfpA1pb1pVAc5w9NW/ddDkN9p+HeqxTIL0ovOs50OQKOlgrjbmdg3njfUmlYNxXuS5tnHKi1DrgQZj4M3yPl0c6arD1t1rmCQwRghXywJ+X9zlx9IXNllw+sC/NJ2Ck6NpG0AiSe31rnZlBZ2FFMUB537B4y/7592Dwy0oMZ2xjKCgFNgcl5FEOYfHc7rBBOyhsc6ML6XKWhxOTAdaAG+pCRJgTGPzqegBVBC6c0ei6TwYTKsQLmtiTMzdvOM7swAiuynjgEl66o/mTRXI4BBOzbuOEkzETvzh+zRObKZim9pG3JR+dxX1dXaPpZRmy3I1CAMGk7dwMjqTiiim7KegQLR17li+FP0r25K9ZuPUjfpILjBGSBOFZBoe+9L1swr4GAHKrFCinPPlt6FCycT8JWYLv6SZK4s9gfEh/WS0FzrN9gHoFH1w6tirUQsK87+6D5xdOOmPsP9ltFj/ALFAAAI2lJREFUctf+ATOSK7m3DqGP4b+PrjKvOWlPyXcejze+XQ6qIb8x6z2EwvKopDARFAKQLrdvHh02z0z3WEVHpcH6OKUvb27cMGropnrW8LQdSDCXtVGePVpujCce2FDgWmTtUB68z2bN3Yh1itejPFguNgrgoHuPlEe8lt3elgJxrH5OuWXXtt03r/9ET8p/c619IZWKELkM2HHJVmGr+0ko7OhayeWxxhMb6QzYF0KgLkTiseU+DZcPLZIXrB8zW04esx3t7HD/ys4V5smJLvPVQ6vNS1YfMkMQ4GUy1ibb7D8elQgGFSf9ouHCj18+iGVLkGcuB3YlBgq8YtNR83zk/aSevJ0MSCuKo9AWEsgzrkAivpx/E9+/kDjrOZe1d8LcDeSN91t0z9UTL62PTCF8+EhQ+GQ91+ua9hCQAmkP9zlTTQSp92cKhV9Fi2y4HiskHjkfeAb2k+TRT5KEZcIhwHbdrSpzCkpXLP6vbSFDicSH9dZbHioGCmWGs4cy5o8v2mtef84h8/U9g+aTT60yD2VWmHMS47ZT2p7Uij8xbeVhZBn7Ox6cHDYjQdpaTS8/dcQ8ZyXmuySgSOtQGlERWOpybmwQtGq9KyoGKineQ7Rq2SBhfqJ7azGKIyqjdUka8+7nvHs/BkcrdAqB6B7olPwum3zuuHnDe/pS3h/W2xcyFygKAwr3Vs0nGWNfAYQ/0+U7RDgyqhGtZgodviOEy6CMTCWMB+GGJGxg/OzI5+ikZgRaVaPjs/t4aFOMYDxvL/peNvVnbR8NXXFRnurNBwU0ByRwvTEGlo19O+z/aATHavliupGbioqDo6mYXiMURjzNNKwPvNbgh2HeuwYTB9HMUegUAguzozulVEsgn3gX9N/ApD+MZ6vhgQKAgoCjtjgZbhwz3TnBi8KCn0YKCGafy2tEgS6sRgk9toLpCqIDaQWW+cDPtgamf9pgzpzcm7P5sv0fDcpRxI3s7Cg3KKlGcYyyyHpnffGbbiqufMCZ4lwJgfcHQyPvjVKMpb+h590u5REn0hnbUiCO1tMZ79n7TBCEH8Urb5uWQysMIJDokhiHIqEymZzG8FssChgpEloqVrDUmQ0KVc5ToNBjaLTQs3HamMuEW535nYlq3q9SaWafxsmE3M9+m0aHyIXFumDfUqNSiNdtBvVORWHvBSiOKdgCvA8YGpVeKbbjf0vWh3kws6H7s8f3aqtTCKgPxOGayhbN3/r58HWwQlYXK0msBuU9Eg4lC8SDaybAKC64SNBXwhdDdXehQxjbnOfA+SUUOpEiiL7ny0qpQz1xgi9/vutqPV4ShGyVR6Wp9cp6zzsxHS5fwnw0I0SCnCPbUlDGtXKP5yXKW1R/tDIKmLRqGwzgxmHRjJefEs/41c3bLnrhbWe/eRvsYYVOIyAF4nCNnfXePTs5Ox1WyJ8sZkTWQovY11tab2l0rGjGxksznGmJpFIlRdKNZbapWCKlYq0UJBLpuErCjaOF2OmbzZXeVx4Js4Xmrdr5jI/5iARttfMatn9G0EbxsczlHKJji/1m3BTujJ+KuBLfeBpWh+FPpMtovZBLHsusZHMlhZHBN5cX4b40pn8PDuBdJYifodF1U4r1xL+0PrKF8IGJvhWfN2b3iSdoj/MEpEAcryJMmfvQdCH4TTxr65pphcQxUED19qBvAYmOYmKcXWYb+9hSzaKdOApVgfYqjtM9RaVChcIPR3hhiXbcVXZMPySYFXa4lt/sQOdSHNxuhpBims2KO86n2raPocZWauOr0YEKgHM+yNwynUkg4khlwWR5jMur5GlZUFngQ9cUXw1QwA3EeOLZ60djYaC/1Dnf6DzPFZ/NLzKCe+zWC7c+AlWm0IkEpEAcr7VNt+3cg7cWfhhLlLyjGSOyqhWfgoiKYXgoiVfSFu0igXFhxesojCic+BkZL8nORAKr7cJSSePaHqtUsI2lVej+4tDT3u7IzRQXY9VyUft+5s2jAD/W7q792nrOrJT7qAVfT3xzXcO6oOKgAmZgOtwXWRV2oUIqCmtVwLKA8oiUPs87Vm9kxM9MYv19CUNrsx1hxvq4Z0Pf7i+1I32l2RgCUiCN4djUWAom+b+nC4U3JH1zMlc2bVWg8KHbauUKDJOFEslBQEXCKMpD9DsSShRq0xm83xwfrsNNq8BaKoin5PoK0OJtjtBiWi0LYBMP5JCwCiy+t3HbXWnwj6wKWIGRsqALiq9+jW4LIjhWJ/gRbcdzwn2DAwm4w0ruxPixVm0HXEjMmFu8rWZmfFerUlY6jSTQnCe5kTlUXOb027fvgxP8Q5yt2+rAx5wL3NESYb+HfeznyQQFFIV5JNDZGp7G6K4jo4HZe7BoJqdOVETzRFnT4XILoEzG1xRHLSdVq4XIMqgljlrPIUvOv9i1r2Ce2lEwO/cUzf7D7JviQIeSS4omRcS7ksKI0mLdcbn7FajLdioPjizE+z7ueqJv939GedN3ZxKQAumQekskix+eLoS7YYW0PFAQUzCtGCq5PGpRIuWZjJRKEkqQkwo5dLiaIC6/ttbf7IOYS4DWGk8t55UrJ6brVVh2vpa45jrHWnSwOKyVATMj4lhKb64rZx9jnbG/ahh1SNdkPXU4O8b6f2F4epAIg1u2yPqoH6IjV7ZBHDlS8g7Lxsnv2ncQk8n+th1WSBwVO1zr7XSl0KI7i8JvGpPUyoVwPJ2FbjPuyOJZ6LULPp+aryzzHMJbbgEtON6yC8iJLw6jBZfC4IR6A9mwT2p4RdK6JNupPGh94H0f/3339r1fr7c8us4dAvXfle6UYdnkxEuGf4eO9B3tsELikPv7fLwYqr6ROxzZRcEYvWyI240KtAAaGd9c+YrrD243Wnkwba49xVWVWSYOQKgnUFnQXUUXZDNcbAvJE6sa1kcRgx1uefWnDUqn0OkEpEA6qAY3vmv3YXQ+fqDdVogVShjma4USpEJcmM6Hky4sBgpFLqVCF02jAuNshhtp3vwBQKPdZ6REK418yJvcFqqkWC8cZTU0iHXCStjnLUozT6D1UQjCr6/v3vPNZqajuFtHQAqkdawbktJgIvlRWCHbky3z11TONoVaF4bp0i1C4cbftQR2yEeBrhm6aBol3BhPLPoomaZ8s7zxItM116jAcnBJEdtPNIOLlttCFcgAhulytJULgcXAPJRi4Pu3YuRVA5sNLpRu+eZBCqTD6n7FLTuO+p73/pQDcoFCtDTMN2nnfsynRCgYraCdkbz8zYmJVCSNCnY9qrhkb1TEJ8QzI9ln9jdScZEjrbN4sOyQyHyMeQ1zRhcjXY21nB9Pp1nb1voIzVc3vmvXt5qVhuJtPQEpkNYzX3SK2WzyE7BCnkw1UmrVmSsKKCqFYcwVmW+YL4eQ8hOX71yPKfLz15mFY5dRyLIzu2VhJimbLkaANUJYW6XKJUYwSi0euJ+TMecKTJ9WygpYhT1wMTYiP3OlV+sx5jofhAXfS9yKcrSwgmrNoc6rl4AUSL3k2njd6e/fPgJx9X4ubOhCoKDyIBk4zJdLoFQSXJQaFG60EOLBCkwus9Gg6WQLdfPE87KQ7XgZWQa7jMlCIqhyLhUqrQ/GWR7mUiDMD4+zX6rdw3TL822tj6L3H+tv3XFP+TH97mwCZY9zZxdmOeU+M535B7wv5HGsg+dUoOuk4kxzCDj2f1TKrp3r0KC+kEiBWPlLrdWCQGFfSeAvNGnGkUHHeTWXHhVEpXSoPDhMlysG0KUYV24LzUOjz2c9YNhuDoMbbsFmi2qk0aVQfNUIVHqeq52r/Q4ROPsDR8aQnfexM90KMPywQrPNeaSE4BpL7LwtF3YJLpxTIZM8z64M24DJhc1cUj2ONi4JGzUCi26raoMKqBSsAi57Yrm/u7s0QZAd7S4pD/LqhtIrhuEXNt62+/44P20vDQJaC6uD6zE9kfun6f70b6Ev5MJ8GFpdwn6Raq4tChcKPvttt+EIm/lNDNFxbi8mMB66smgNcEn4aKjuXCPHmA+6briSb72B6UYuMsbX1DCTANME8oYElt+WoUp85EklUsSqulS6PJfDdKOJnfztUiCXLKwPP/RvcylfykvjCCzicW1cJhRTfQTWfujgxLa3rfuZpJdah4GR/WEy7MMyIYO5IOzHWnWDXugNQtQMwX0wCE3Rj9b/IFLqw2cArxDlkoa9mFfSDbHbBYGExdhNNx569nNDKGLDfpfyFskmCiluz/4+3oFsz+M5+LBTPbHCMyOjWM0XQm+uoa5Iyk4uZCs8jZdX1SsMIwskbOFA0cgCqTfPVAbRO8e5XS3wGN1YXFSRgYqDy7GXflW7qvp+m9RMelGy0T5+s1/LfjMKbNhjdj93HP/Nbb5zhOUndtxTdpsNBrzv499OuX3X93iOwtIjIAXS4XV61rv3H0AR+Kk5bN1q/D/bc1li/+CutBcmeqBsesIurwdPfw9Gy/Sn/ER/thgMJk044Pn+AATCIETJAETDCogNfIf4Nn1QTlRG0acH2xD9JsVvTltga7kL7pUe+OXHJ4omhTdQhQF7iCuPQaYgZCs8xRjqDBSycwnhOqM94bK4skgk6hXhpWhtHxD6PuYN0IppH6vywhTh5MA+DljAReVC3jKIRcZzovxG23Ar2feeIwKobLsiLtb1LX1jH2rB4IW2IXM1DccY1lb2snjb45TvBRNQElO4H/ACZDOJhgZefstzzRTaCFNwXE6ikqfwhvppZGyqz+/ZhmMKS5RA1KhYosVTsZpJINxqkrtGN6Zy6XS6159KQ8r0+WG6DxZPL4ROXzKkRRQOeb43WAxTK7JX/Pbr+7d/7axg3yPwxVTWEhR0/b20Xo4LvYWWYXQ8gVFdnn0X++BAAyeZzGSEAnpyysdM8dKbGwf6+Q6U41bYQvLLuPju8SmI6jkVX1AwXv8aM911ctHb++N9PT0pCPQQ6/GaHJhl4LqD4DZTSHuKgpvbFPjYnvRNYIW9/Y2sQxlMJr1wGiO+MlgeJ+MFYSYXBJleL5ju6uvKHZpOF/uKk4V1/auhXB4peFs18W8hdbqczpUCWU613eayPvS9+1/UO/rUf6TveU/SG9sJP1llJUJf/1D/PAJ1jrKMTyTg5mmyAoFYns6inwdPEJVUvVYIh+2OoQ0fWQgViwXlYbqHTO7KN5n80BlvOPmrv/y5bLErN9Hbnz/NbM9JwFekpp0tICAF0gLISuI4gUfu/to/9WcPvMb/1q3GmzoIJXKiF5XCtBcOsV70zswpWI9He2yLrfiJyQQmJzZXgUxAgWSgQKg4hqBA5rQejuWubMPmtdT/UfV6KI+wa8iY6/7AjA+c/akLrr3xl8ti0U8RaBsBtPUURKB1BIph/h3TPesOZ6/4nZJg5IsuygKFKWenV5sPUXb6CT8bNanvhIhn7Si1vZjXqsJ/1vmzf/BqDhiIr3c1+wz8ovKA5ZG/6s1mcvCsfYDyRyecox0i0EYCUiBthL8ck77oupc+FeYztyTWXWAyl74BPeYwNcITlQg7lutd4qTpy5nAQoosI7rb6gmIwvZ7VL3WKo8VZvq5v2eCtRdAm2b+5wUv+Llnqp6vAyLQBgJ13v5tyKmSXDIEhvq8D2Wmxr/vbbzMTF/8G6W+kLJxt9YKwez0epY4qVeo1wqYwj8KfA/6Qi0QWzZYWFXLFimPy3/XpNZfZHKZiS+c+18PfiJKU98i4AoBKRBXamIZ5WP95S/jaKE/hiVSLG68ymSe/Rr8hFMnatbPsODP6QUuccJrKKAXKtQXij9SIvUoK7uMPRRIxTxa5TEMy+N3jVl3vslNTxwKg/Bt3tatnGKhIAJOEZACcao6lk9mzn/ey+4o5POf5FIX+dNuMNkLfmHGlRWJ5pKArWeJk0ioH4+pCVxnIl9ofwuVBue6cPTVCYHKo6ekPIqrzjVJvLQP573jwi0v11yKE2BphwsEpEBcqIVlmod8sfCObC53KIFpBrmzXmJy57zMdhxDkxwjYq0QCNzje44dqrrBtxJWbN1XvaLOA1AGXDamzHCqGhlOr/4q3xnLYwp9HoVV52ANKfYB5e44P+z7u6oR6oAItJmAFEibK2A5J3/Rja96KgiKt6a4ABZGY2XP+3mTP/1GNM8xPGkmUBHw/el2tFK0c55vXtPsjnQqNM4BobKqNfBMvqb2hCus5bHSTF2BDvOVZ5tEWMAIrfxI6Ad/4G3ZgtIriICbBKRA3KyXZZMrdqhPZzM/SKdK80Eyz/oVkz/lWigRdH7Egl1oMPZ7vk27qOIJknq+q2o/XuprCe2CkbVcRaVGd9wJitAqj1WGlgeVB8udAotCGPzFhde/4tFa4tY5ItAuAlIg7SKvdC0BdqhjXaW3BzBFsPwJmvWYBPicXzOFky6ZpUQ4YokLDtbimipZIM0HHPW11JIShyVPlXecB3kT9KyyHebByrNsebuwXhhcV98KV535wVri1Tki0E4CUiDtpK+0LQHboV4sfpKurFwGC0MluzBH5DdNcfV5x5QIlQKtkGhp+PnQLbRze774yo/TAqECqVWhnTAxkpZH72qTgeVRnFEejKtQKIwnA/8tF1544WwTrDwD+i0CDhCQAnGgEpQFdEbnvXfk8vlDmVwWXSA5zFIfMNOX/TbW/z0NWqPUJ2KHv9ZohZSsA0jkJoTIM8Y5ILWEIqynWS+KmlEeU899E5THmcZD+abxKsIitGMxCG85Z8vP/bCWeHWOCLSbgBRIu2tA6VsC59z40qfwRr1b+/v6sDotVgJHp3pI987l/48J+k6yo7PYQj+hJV+Fn2eFe20CvkoU1XfPRFuLC4sqjK6rY5YTlAUtDzvDfPgMa2EVoBkDTqQMzf39yZXvq56wjoiAWwSkQNyqj2Wdm/7u8EN4v8T3sfw7OptharCPYGC9yUCJhN3DVolQEM+7xAkEPEdIcW5iM4N1k82ho5h8LhpBxh+wPILetbbDvDijPPjSpqnpKZNMJKZ6urp+/5RrruG7NRREoCMISIF0RDUtj0yyQz2ZTP4xXi9SnJziZHUEDOmlsJ2+7I0mTOOlilg3KwuPVtVlQHAJZbodYsvtOQQ8DtcdqA+YxlzRc67gsWG7VnngfR5XvMkEw6dby4PKI5PNYkXfBN40mHrvGde8+Dt1Z0gXikAbCEiBtAG6kqxO4Oxrf/aOpJ/4ZBqvJaRwpZDl0NbimgtN5uLXoYM9jSkjge1Q56Fqwc7PmON4tetq2U+lwbTn6qjncWTfzmFhH0fYO6M8VpxqlSLTwcgza2nh5Y3fX7t28NZa0tY5IuASASkQl2pDebEEUsnEO3w/cXg6O22FrN0JJVJYf7nJXPRag9fsQvDiXaywRKrpCCvgqx1cLGdoEMbPT7XADn+7jlcIN1zfOkwShOURUx7WdcURZ3irYF9f91vWXriFr4ZVEIGOIiAF0lHVtTwyew6WfO/uSt+STqXNJDvUI0kNJZLfdJ3JXPhqNt/hHsJrZKsgKQn4akerXFTzbtgMc4zAYtp24iM0HAcAWLdVmfLAiDOrHP1E4m/P3fzSb9ectE4UAYcISIE4VBnKynECQ33rPwTF8f1CIc+5EccPoE8kf8bPmOy5L4cFUijN7K5iCdQySup4xLVvzTUHhMrDLr2SgYLop/LADPPB424rpoJ3mcO9lcF5xUcSXem/rD1lnSkCbhGQAnGrPpSbGQLrL798qre754+hRIqTGKV0zAqhzYEO6dx5Lze5M3/GZKbQv8De6gphLiuhwukL2lVtDgiVyzTyVOw7uWR5DG1Cfo/PCWQ5OOcjC+3XlUz+4SVbfn5kQQnrZBFwiIAUiEOVoazMJsAZ6qlE8l9tix0LSc1SItAa2Qt+yUxvuM5kMUuPLf/yUGlf+Tn1/qZ1Uz7Ci+nlYHlku6E8rkSfx+ApxzrMo3QKmFVYgBWFMn388p/95Tui/foWgU4kIAXSibW2jPKc6u/7M8zQPjSNDmcqkmOB25DYmYt+1YyvuhxTRo638qNzmuXCYs+9XawxSmjmO4C7bTJ1MuZ5UHlshOVRmkEfnWatD/TpTE1n93peemu0X98i0KkEKrTbOrUoyvdSJXD/V/75bXgr3+1dqS7T29MzW5F4CXQ6TJlVD/2tGRh/1IR+ymLgjZ3ARA0u0EhFUulGr7Sv4ollYItY9rEQhHiLyfHgwa02kTzZHL7o90w4BOURW5KeZ0WuqwxGluUL+Tdd//Ov+9vjV2tLBDqTQGkN7c7Mu3K9TAj0JIr/eywb/g8TZp/TlU5DIcQMZ0wsDNN9ZuSC15vuH73LpLJHTDqZgIA35suPF83nfxqaFd1QJjPagpP/+GHgy6C4SddTdJzfkesrieO0eRLYEV3D6/IYovurz/HNpiHM9UD/PhYSNvnu1ebIhVAeAycqD15T5PtOsM4XVtr90URX4WPcpyACnU5g5lHq9GIo/0udwF1f/MTLMXL2c7BCvIH+/tlWCAofJrrM4K47zLon/9Hcvzdh/uaBovnm9tDkIOxPCDFPWHSswq7oUMXvs1d65rcu880vXeiZwXRodp3z22Zy3dXGK2L2YFmg9TE2MY73geRC9IG86oZXvf5zZafopwh0JIFYU64j869MLxMC173s6S8VisHXC3AV4W19J3iaPIx0ypx8tfmT755kXvWprPnak3BdoXnUAxv7hA+8XD1ln178XsjnmdHQ3PyNonnZv2TM1yaeZfLrLofyOLEfhsoDr+01RcwsLBSCrx8oDnxxmVSZirkMCEiBLINKXgpF9LytAVxKf4nRrwUO6y23GGhKZ4pJ81878U6RQmjfKd5M85ruLb63/Hu7i+bfd641SSy9UnJ4zabNVXYnpyY5lyVXDMM/f/WrX13JJpp9kX6JQIcQkALpkIpSNo3Z/Irf+DZa8l8OOYQX/Qls3UeB2+OTk2ZibBQr27butu6GJjl86CA6xtEZUhaYpyksCslsog/kky/4xdfdW3aKfopARxNo3ZPW0ZiUeVcIJI13S6FQzHG1Xi5GGAUf/qqjo2NQIvFJh9HR5n2zQ3/fwUOYWQ632iyFhs52uNqmsaJiLl8YTXjJv2peLhSzCLSHgBRIe7gr1ToJXPcLr3ugGAaf5ztDpjA3JBLaPiZmHDh8FIJ8tmVSZzI1X0bFdWRkFJ3kE8fywos5TYUWURIjwoIw/P+ue+WvPV5zpDpRBDqEgBRIh1SUsnmcQOD5t8FllOXkwmidLAryfQcO4XdruxiowMbGJ60SYR4YuM++ohazznO5/M5itqi3DB6vPm0tIQJSIEuoMpdLUZ7/87/+IGbxfQZv8TMTto+hJLj37D9wQud6s5lQWXCU1d4DhzGvBJMaEbhcyQQ6zml9wBK5/cb/+w37m50PxS8C7SAgBdIO6kpz0QSKXnB7Pl+cZmc65legPySEED+E1v+io15wBBhebKi8mDYVygRcV3g1L/tFHspOJjRpcMFEdUGnEJAC6ZSaUj5nEXj+K1//I4xs+hTfXMjWPq2A/QcPz56lPuuK5v7YuYdGBl9Rm7FvUuREldAzf/Ezr33tZHNTVuwi0D4CUiDtY6+UF0kgkfRuzxXyk5ykd/DIUfRDjKHl3/pbmtbG3gMHrSXEjnMqNfTFfNM8tOPziyyiLhcBpwm0/mlzGocy10kErn/F6x7FIov/3N3dZfbChTQ6PgELpPU+LB/zTvYfOgwldsQOLYZCyye95J9t2br1xMkhnQRYeRWBeQhIgcwDSIfdJpAshu/FiKzxwxhKOxV//W0Ls825IIePjlol0gNlhuXnP735la+9u4VZUFIi0BYCUiBtwa5EG0Vg86tf/9Ok7/8D3xXCjnTMuWhU1LXHgyTHJjALHpMY4boax0sU/7L2i3WmCHQuAazmoyACnU0gn8u/76Lzz3rNG1/zyhUf+9QXMPoJixpySJQNoZ3Ux81oT2n/zN+KO2edEftR6WSsu9XVZV790hvNWaefgqXe8x953ivf8JPYRdoUgSVLoNITsWQLq4ItXQLf+uzH39ff3/uWr915rxkZm4BQT5esEVgkcCnZgtNCKb3VkPtKlgqXQ+G+yILhicf2YVYJr2GwcUTnzVg5PO/w0TFzxSUXmhc/72oqrj2TQfbyF7/qt/bai/RHBJY4AVkgS7yCl0vxAj/z1/AivXbLNc9dWVoVN9Y2ijZr9m7NfWJ0lNGWFEvpuxiad0t5LJc7TuUkgejREg0R6HgCd372Y7fCnXRzButhtTKkkkm4rgqPhoX+K7e8+tUTrUxbaYlAOwnIAmknfaXdUAKhSX8AM9Nfl0qlVpdW6p2xFWZ/VUnz+EmRhVHlxIq7Q+P9LymPimi0cwkTkAJZwpW73Iq25VX/Y9edn/3oR9B//lrMxcDL0mFh8x9eg04W2MRbcTE/nP/wwsIZPqUFrErncD+OhrHz2R3P3biuFPgTp+A/PqkUrI984f6Bw/nPzhzXlwgsGwJSIMumqpdHQfHK2D8fnB57T1cqYXvOk6m0l80dhUIYMIlUyktMZ7xEMulNJ7Nev+nD2wuLVlnki4HvJ3JWOWBtK7svWUz7ptuYRBD6hST3deElH1NJE6aNnwx9WDm+l8Tc90Lq0OW/9br88iCsUoqACIiACIiACIiACIiACIiACIiACIiACIiACIhAxxCIOgY7JsPKqAiIgAiUE8BE0HoGz5VH4+RvvGPGWTltOwudpKZMiYAIiIAIOE1ACsTp6lHmREAERMBdAlIg7taNciYCIiACThOQAnG6epQ5ERABEXCXgBSIu3WjnImACIiA0wSkQJyuHmVOBERABNwlIAXibt0oZyIgAiLgNAEpEKerR5kTAREQAXcJSIG4WzfKmQiIgAg4TUAKxOnqUeZEQAREwF0CUiDu1o1yJgIiIAJOE5ACcbp6lDkREAERcJeAFIi7daOciYAIiIDTBKRAnK4eZU4EREAE3CUgBeJu3ShnIiACIuA0ASkQp6tHmRMBERABdwlIgbhbN8qZCIiACDhNQArE6epR5kRABETAXQJSIO7WjXImAiIgAk4TkAJxunqUOREQARFwl4AUiLt1o5yJgAiIgNMEpECcrh5lTgREQATcJSAF4m7dKGciIAIi4DQBKRCnq0eZEwEREAF3CUiBuFs3ypkIiIAIOE1ACsTp6lHmREAERMBdAlIg7taNciYCIiACThOQAnG6epQ5ERABEXCXgBSIu3WjnImACIiA0wSkQJyuHmVOBERABNwlIAXibt0oZyIgAiLgNAEpEKerR5kTAREQAXcJSIG4WzfKmQiIgAg4TUAKxOnqUeZEQAREwF0CUiDu1o1yJgIiIAJOE5ACcbp6lDkREAERcJeAFIi7daOciYAIiIDTBKRAnK4eZU4EREAE3CUgBeJu3ShnIiACIuA0ASkQp6tHmRMBERABdwlIgbhbN8qZCIiACDhNQArE6epR5kRABETAXQJSIO7WjXImAiIgAk4TkAJxunqUOREQARFwl4AUiLt1o5yJgAiIgNMEpECcrh5lTgREQATcJSAF4m7dKGciIAIi4DQBKRCnq0eZEwEREAF3CUiBuFs3ypkIiIAIOE1ACsTp6lHmREAERMBdAlIg7taNciYCIiACThOQAnG6epQ5ERABEXCXgBSIu3WjnImACIiA0wSkQJyuHmVOBERABNwlIAXibt0oZyIgAiIgAiIgAiIgAiIgAiIgAiIgAiIgAiIgAiIgAiIgAiIgAiIgAiIgAiIgAiIgAiIgAiIgAiIgAiIgAiIgAiIgAiIgAiIgAiIgAiIgAiIgAiIgAiIgAiIgAiIgAiIgAiIgAiIgAiIgAiIgAiIgAiIgAiIgAiIgAiIgAiIgAiIgAiIgAiIgAiIgAiIgAiIgAiIgAiIgAiIgAiIgAiIgAiIgAiIgAiIgAiIgAiIgAiIgAiIgAiIgAiIgAiIgAiIgAiIgAiIgAiIgAiIgAiIgAiIgAiIgAiIgAiIgAiIgAiIgAiIgAiIgAiIgAiIgAiIgAiIgAiIgAiIgAiIgAiIgAiIgAiIgAiIgAiIgAiIgAiIgAiIgAiIgAiIgAiIgAiIgAiIgAiIgAiIgAiIgAiIgAiIgAiIgAiIgAiIgAiIgAiIgAiIgAiIgAiIgAiIgAiIgAiIgAiIgAiIgAiIgAiIgAiIgAiIgAiLQQgL/PwWGvCXxPdp3AAAAAElFTkSuQmCC;" parent="1" vertex="1">
          <mxGeometry x="346" y="927" width="130" height="130" as="geometry" />
        </mxCell>
        <mxCell id="caf9pRx0J8VwcJRrtuNd-31" value="&lt;div style=&quot;font-size: 12px&quot;&gt;&lt;font style=&quot;font-size: 12px&quot;&gt;&lt;br&gt;&lt;/font&gt;&lt;/div&gt;&lt;div style=&quot;font-size: 12px&quot;&gt;&lt;i&gt;&lt;font style=&quot;font-size: 12px&quot;&gt;SwapBot&lt;/font&gt;&lt;/i&gt;&lt;/div&gt;" style="shape=note;whiteSpace=wrap;html=1;backgroundOutline=1;darkOpacity=0.05;rounded=1;glass=0;strokeColor=#d6b656;fillColor=#fff2cc;fontSize=13;align=center;" parent="1" vertex="1">
          <mxGeometry x="375" y="800" width="70" height="90" as="geometry" />
        </mxCell>
        <mxCell id="caf9pRx0J8VwcJRrtuNd-33" value="" style="endArrow=classic;html=1;fontSize=13;entryX=0.5;entryY=1;entryDx=0;entryDy=0;entryPerimeter=0;" parent="1" target="caf9pRx0J8VwcJRrtuNd-31" edge="1">
          <mxGeometry relative="1" as="geometry">
            <mxPoint x="409.8" y="960" as="sourcePoint" />
            <mxPoint x="410" y="910" as="targetPoint" />
          </mxGeometry>
        </mxCell>
        <mxCell id="caf9pRx0J8VwcJRrtuNd-34" value="&lt;font style=&quot;font-size: 10px&quot;&gt;&lt;i&gt;Deposit ETH&lt;br&gt;&lt;/i&gt;&lt;/font&gt;" style="edgeLabel;resizable=0;html=1;align=center;verticalAlign=middle;labelBackgroundColor=#9AC7BF;" parent="caf9pRx0J8VwcJRrtuNd-33" connectable="0" vertex="1">
          <mxGeometry relative="1" as="geometry">
            <mxPoint x="-0.9" y="2" as="offset" />
          </mxGeometry>
        </mxCell>
        <mxCell id="TYwXIyngZJaOMQinrBL2-6" style="edgeStyle=orthogonalEdgeStyle;rounded=0;orthogonalLoop=1;jettySize=auto;html=1;dashed=1;fontFamily=Lucida Console;entryX=0.5;entryY=0;entryDx=0;entryDy=0;entryPerimeter=0;" edge="1" parent="1" source="caf9pRx0J8VwcJRrtuNd-38" target="caf9pRx0J8VwcJRrtuNd-9">
          <mxGeometry relative="1" as="geometry">
            <mxPoint x="560" y="400" as="targetPoint" />
            <Array as="points">
              <mxPoint x="85" y="400" />
              <mxPoint x="555" y="400" />
            </Array>
          </mxGeometry>
        </mxCell>
        <mxCell id="TYwXIyngZJaOMQinrBL2-7" value="&lt;div&gt;&lt;span&gt;&lt;font face=&quot;Helvetica&quot;&gt;75% of fees go towards staking incentives&lt;/font&gt;&lt;/span&gt;&lt;/div&gt;&lt;div&gt;&lt;span&gt;&lt;font face=&quot;Helvetica&quot;&gt;&amp;amp; 25% goes to the dev team&lt;br&gt;&lt;/font&gt;&lt;/span&gt;&lt;/div&gt;" style="edgeLabel;html=1;align=center;verticalAlign=middle;resizable=0;points=[];fontFamily=Lucida Console;labelBackgroundColor=#9AC7BF;" vertex="1" connectable="0" parent="TYwXIyngZJaOMQinrBL2-6">
          <mxGeometry x="-0.2809" relative="1" as="geometry">
            <mxPoint x="120.17" as="offset" />
          </mxGeometry>
        </mxCell>
        <mxCell id="caf9pRx0J8VwcJRrtuNd-38" value="&lt;div style=&quot;font-size: 12px&quot;&gt;&lt;font style=&quot;font-size: 12px&quot;&gt;&lt;i&gt;&lt;br&gt;&lt;/i&gt;&lt;/font&gt;&lt;/div&gt;&lt;div style=&quot;font-size: 12px&quot;&gt;&lt;font style=&quot;font-size: 12px&quot;&gt;&lt;i&gt;&lt;font style=&quot;font-size: 12px&quot;&gt;CollectorBot&lt;/font&gt;&lt;/i&gt;&lt;/font&gt;&lt;/div&gt;" style="shape=note;whiteSpace=wrap;html=1;backgroundOutline=1;darkOpacity=0.05;rounded=1;glass=0;strokeColor=#d6b656;fillColor=#fff2cc;fontSize=13;align=center;" parent="1" vertex="1">
          <mxGeometry x="50" y="570" width="70" height="90" as="geometry" />
        </mxCell>
        <mxCell id="caf9pRx0J8VwcJRrtuNd-39" value="&lt;div&gt;&lt;i&gt;DistributionBot&lt;/i&gt;&lt;/div&gt;" style="shape=cylinder3;whiteSpace=wrap;html=1;boundedLbl=1;backgroundOutline=1;size=15;fillColor=#dae8fc;strokeColor=#6c8ebf;" parent="1" vertex="1">
          <mxGeometry x="220" y="440" width="90" height="100" as="geometry" />
        </mxCell>
        <mxCell id="caf9pRx0J8VwcJRrtuNd-41" value="" style="endArrow=classic;html=1;exitX=0;exitY=0.5;exitDx=0;exitDy=0;entryX=0.5;entryY=1;entryDx=0;entryDy=0;entryPerimeter=0;" parent="1" source="caf9pRx0J8VwcJRrtuNd-8" target="caf9pRx0J8VwcJRrtuNd-39" edge="1">
          <mxGeometry relative="1" as="geometry">
            <mxPoint x="360" y="680" as="sourcePoint" />
            <mxPoint x="260" y="540" as="targetPoint" />
            <Array as="points">
              <mxPoint x="265" y="720" />
            </Array>
          </mxGeometry>
        </mxCell>
        <mxCell id="caf9pRx0J8VwcJRrtuNd-42" value="Enter Enigma" style="edgeLabel;resizable=0;html=1;align=center;verticalAlign=middle;fontStyle=2;labelBackgroundColor=#9AC7BF;" parent="caf9pRx0J8VwcJRrtuNd-41" connectable="0" vertex="1">
          <mxGeometry relative="1" as="geometry">
            <mxPoint x="-5" y="7.5000000000000036" as="offset" />
          </mxGeometry>
        </mxCell>
        <mxCell id="caf9pRx0J8VwcJRrtuNd-46" value="" style="endArrow=classic;html=1;entryX=0;entryY=0;entryDx=70;entryDy=60;entryPerimeter=0;dashed=1;" parent="1" target="caf9pRx0J8VwcJRrtuNd-38" edge="1">
          <mxGeometry relative="1" as="geometry">
            <mxPoint x="265" y="630" as="sourcePoint" />
            <mxPoint x="165" y="650" as="targetPoint" />
          </mxGeometry>
        </mxCell>
        <mxCell id="caf9pRx0J8VwcJRrtuNd-47" value="Entrance Fee" style="edgeLabel;resizable=0;html=1;align=center;verticalAlign=middle;fontStyle=2;labelBackgroundColor=#9AC7BF;" parent="caf9pRx0J8VwcJRrtuNd-46" connectable="0" vertex="1">
          <mxGeometry relative="1" as="geometry" />
        </mxCell>
        <mxCell id="caf9pRx0J8VwcJRrtuNd-52" style="edgeStyle=orthogonalEdgeStyle;rounded=1;orthogonalLoop=1;jettySize=auto;html=1;exitX=1;exitY=0.5;exitDx=0;exitDy=0;exitPerimeter=0;dashed=1;fontSize=14;" parent="1" source="caf9pRx0J8VwcJRrtuNd-39" edge="1">
          <mxGeometry relative="1" as="geometry">
            <mxPoint x="410.0000000000002" y="490" as="sourcePoint" />
            <mxPoint x="350" y="700" as="targetPoint" />
            <Array as="points">
              <mxPoint x="350" y="490" />
              <mxPoint x="350" y="700" />
            </Array>
          </mxGeometry>
        </mxCell>
        <mxCell id="caf9pRx0J8VwcJRrtuNd-53" value="AirDrops" style="edgeLabel;html=1;align=center;verticalAlign=middle;resizable=0;points=[];fontSize=12;fontStyle=2;labelBackgroundColor=#9AC7BF;" parent="caf9pRx0J8VwcJRrtuNd-52" vertex="1" connectable="0">
          <mxGeometry x="0.0472" y="-2" relative="1" as="geometry">
            <mxPoint x="2" y="19.17" as="offset" />
          </mxGeometry>
        </mxCell>
        <mxCell id="TYwXIyngZJaOMQinrBL2-5" style="edgeStyle=orthogonalEdgeStyle;rounded=0;orthogonalLoop=1;jettySize=auto;html=1;exitX=1;exitY=0.5;exitDx=0;exitDy=0;entryX=0;entryY=0.5;entryDx=0;entryDy=0;fontFamily=Lucida Console;shape=link;dashed=1;strokeColor=none;" edge="1" parent="1" source="caf9pRx0J8VwcJRrtuNd-54" target="TYwXIyngZJaOMQinrBL2-2">
          <mxGeometry relative="1" as="geometry" />
        </mxCell>
        <mxCell id="caf9pRx0J8VwcJRrtuNd-54" value="&lt;i&gt;Initial Token Offering&lt;/i&gt;" style="shape=parallelogram;perimeter=parallelogramPerimeter;whiteSpace=wrap;html=1;fixedSize=1;rounded=1;glass=0;strokeColor=#d6b656;fillColor=#fff2cc;fontSize=12;" parent="1" vertex="1">
          <mxGeometry x="500" y="830" width="150" height="40" as="geometry" />
        </mxCell>
        <mxCell id="caf9pRx0J8VwcJRrtuNd-56" value="" style="endArrow=classic;html=1;fontSize=13;entryX=0.5;entryY=1;entryDx=0;entryDy=0;" parent="1" target="caf9pRx0J8VwcJRrtuNd-54" edge="1">
          <mxGeometry relative="1" as="geometry">
            <mxPoint x="441" y="992" as="sourcePoint" />
            <mxPoint x="540" y="870" as="targetPoint" />
            <Array as="points">
              <mxPoint x="575" y="992" />
            </Array>
          </mxGeometry>
        </mxCell>
        <mxCell id="caf9pRx0J8VwcJRrtuNd-57" value="&lt;font style=&quot;font-size: 10px&quot;&gt;&lt;i&gt;Deposit ETH&lt;br&gt;&lt;/i&gt;&lt;/font&gt;" style="edgeLabel;resizable=0;html=1;align=center;verticalAlign=middle;labelBackgroundColor=#9AC7BF;" parent="caf9pRx0J8VwcJRrtuNd-56" connectable="0" vertex="1">
          <mxGeometry relative="1" as="geometry">
            <mxPoint x="6" y="-65" as="offset" />
          </mxGeometry>
        </mxCell>
        <mxCell id="caf9pRx0J8VwcJRrtuNd-59" value="" style="endArrow=classic;html=1;fontSize=12;exitX=0.5;exitY=0;exitDx=0;exitDy=0;entryX=1;entryY=0.75;entryDx=0;entryDy=0;" parent="1" source="caf9pRx0J8VwcJRrtuNd-54" target="caf9pRx0J8VwcJRrtuNd-8" edge="1">
          <mxGeometry relative="1" as="geometry">
            <mxPoint x="460" y="760" as="sourcePoint" />
            <mxPoint x="560" y="760" as="targetPoint" />
          </mxGeometry>
        </mxCell>
        <mxCell id="caf9pRx0J8VwcJRrtuNd-60" value="&lt;div&gt;Credits Distribution&lt;/div&gt;" style="edgeLabel;resizable=0;html=1;align=center;verticalAlign=middle;labelBackgroundColor=#9AC7BF;" parent="caf9pRx0J8VwcJRrtuNd-59" connectable="0" vertex="1">
          <mxGeometry relative="1" as="geometry">
            <mxPoint x="3.99" y="10.9" as="offset" />
          </mxGeometry>
        </mxCell>
        <mxCell id="f7zw6JF0BEblQaYUn0nl-1" value="&lt;h1&gt;&lt;i&gt;&lt;span style=&quot;font-weight: normal&quot;&gt;BotNet Workflow&lt;/span&gt;&lt;/i&gt;&lt;/h1&gt;" style="text;html=1;align=center;verticalAlign=middle;whiteSpace=wrap;rounded=0;strokeColor=#666666;fillColor=#f5f5f5;fontColor=#333333;" parent="1" vertex="1">
          <mxGeometry x="290" y="323" width="240" height="40" as="geometry" />
        </mxCell>
        <mxCell id="J7viZwBXmJvpxO7tJCYs-1" value="" style="endArrow=classic;html=1;fontSize=13;" parent="1" edge="1">
          <mxGeometry relative="1" as="geometry">
            <mxPoint x="409.7099999999999" y="800" as="sourcePoint" />
            <mxPoint x="410" y="740" as="targetPoint" />
          </mxGeometry>
        </mxCell>
        <mxCell id="J7viZwBXmJvpxO7tJCYs-2" value="Exchange ETH for Credits" style="edgeLabel;resizable=0;html=1;align=center;verticalAlign=middle;labelBackgroundColor=#9AC7BF;" parent="J7viZwBXmJvpxO7tJCYs-1" connectable="0" vertex="1">
          <mxGeometry relative="1" as="geometry">
            <mxPoint x="-0.9" y="0.29000000000000004" as="offset" />
          </mxGeometry>
        </mxCell>
        <mxCell id="DKRnm0hefNUDNDJyberR-1" value="Decrypt Credits" style="edgeLabel;html=1;align=center;verticalAlign=middle;resizable=0;points=[];fontSize=12;fontStyle=2;labelBackgroundColor=#9AC7BF;" parent="1" vertex="1" connectable="0">
          <mxGeometry x="410" y="605.1700000000001" as="geometry">
            <mxPoint x="59" y="-4" as="offset" />
          </mxGeometry>
        </mxCell>
        <mxCell id="TYwXIyngZJaOMQinrBL2-2" value="&lt;div style=&quot;font-size: 10px&quot; align=&quot;center&quot;&gt;&lt;font style=&quot;font-size: 10px&quot; face=&quot;Helvetica&quot;&gt;&lt;b&gt;&lt;i&gt;&lt;br&gt;&lt;/i&gt;&lt;/b&gt;&lt;/font&gt;&lt;/div&gt;&lt;div style=&quot;font-size: 10px&quot; align=&quot;center&quot;&gt;&lt;font style=&quot;font-size: 10px&quot; face=&quot;Helvetica&quot;&gt;&lt;font style=&quot;font-size: 10px&quot;&gt;25% of the total amount the user purchased is unlocked four times, once at the start of each new month - so four months in total, after the Inital Token Offering (ITO) has finalised. &lt;/font&gt;&lt;br&gt;&lt;/font&gt;&lt;/div&gt;" style="text;html=1;strokeColor=#36393d;spacing=5;spacingTop=-20;whiteSpace=wrap;overflow=hidden;rounded=1;align=center;glass=0;shadow=0;sketch=0;fillColor=#EEEEEE;" vertex="1" parent="1">
          <mxGeometry x="653" y="817" width="190" height="70" as="geometry" />
        </mxCell>
      </root>
    </mxGraphModel>
  </diagram>
</mxfile>
